<svg data-v-423bf9ae="" xmlns="http://www.w3.org/2000/svg" viewBox="0 0 691 91" class="iconLeft"><!----><defs data-v-423bf9ae=""><linearGradient data-v-423bf9ae="" gradientTransform="rotate(25)" id="9a8bdc9f-d525-4cb4-9a97-a6e374239dbd" x1="0%" y1="0%" x2="100%" y2="0%"><stop data-v-423bf9ae="" offset="0%" style="stop-color: rgb(57, 94, 202); stop-opacity: 1;"></stop><stop data-v-423bf9ae="" offset="100%" style="stop-color: rgb(132, 139, 216); stop-opacity: 1;"></stop></linearGradient></defs><!----><g data-v-423bf9ae="" id="87061713-c616-42e5-945b-7ddff496ee0b" fill="#ffffff" transform="matrix(5.439709543503888,0,0,5.439709543503888,186.4930445647681,7.3844061727408885)"><path d="M9.35 2.13Q9.35 1.81 9.56 1.60Q9.77 1.40 10.08 1.40L10.08 1.40Q10.39 1.40 10.59 1.60Q10.79 1.81 10.79 2.13L10.79 2.13L10.79 11.61Q10.79 11.93 10.59 12.13Q10.39 12.33 10.08 12.33L10.08 12.33Q9.77 12.33 9.56 12.12Q9.35 11.91 9.35 11.61L9.35 11.61L9.35 7.43L2.86 7.43L2.86 11.61Q2.86 11.91 2.65 12.12Q2.45 12.33 2.13 12.33L2.13 12.33Q1.82 12.33 1.61 12.12Q1.40 11.91 1.40 11.61L1.40 11.61L1.40 2.13Q1.40 1.81 1.61 1.60Q1.82 1.40 2.13 1.40L2.13 1.40Q2.45 1.40 2.65 1.60Q2.86 1.81 2.86 2.13L2.86 2.13L2.86 6.15L9.35 6.15L9.35 2.13ZM16.93 4.62Q18.03 4.62 18.91 5.12Q19.78 5.61 20.28 6.50Q20.78 7.38 20.78 8.51L20.78 8.51Q20.78 9.63 20.29 10.51Q19.80 11.40 18.92 11.89Q18.05 12.39 16.93 12.39L16.93 12.39Q15.81 12.39 14.92 11.89Q14.04 11.40 13.55 10.51Q13.06 9.63 13.06 8.51L13.06 8.51Q13.06 7.38 13.55 6.50Q14.04 5.61 14.92 5.12Q15.81 4.62 16.93 4.62L16.93 4.62ZM16.93 5.88Q16.21 5.88 15.65 6.22Q15.08 6.55 14.76 7.15Q14.43 7.76 14.43 8.51L14.43 8.51Q14.43 9.27 14.76 9.86Q15.08 10.46 15.65 10.79Q16.21 11.13 16.93 11.13L16.93 11.13Q17.64 11.13 18.21 10.79Q18.77 10.46 19.09 9.86Q19.40 9.27 19.40 8.51L19.40 8.51Q19.40 7.76 19.09 7.15Q18.77 6.55 18.21 6.22Q17.64 5.88 16.93 5.88L16.93 5.88ZM30.95 4.61Q32.17 4.61 32.92 5.40Q33.67 6.20 33.67 7.63L33.67 7.63L33.67 11.63Q33.67 11.94 33.47 12.14Q33.28 12.35 32.96 12.35L32.96 12.35Q32.65 12.35 32.45 12.14Q32.24 11.94 32.24 11.63L32.24 11.63L32.24 7.63Q32.24 6.78 31.82 6.33Q31.39 5.89 30.67 5.89L30.67 5.89Q29.95 5.89 29.48 6.40Q29.01 6.90 29.01 7.69L29.01 7.69L29.01 11.63Q29.01 11.94 28.81 12.14Q28.62 12.35 28.29 12.35L28.29 12.35Q27.99 12.35 27.78 12.14Q27.58 11.94 27.58 11.63L27.58 11.63L27.58 7.63Q27.58 6.78 27.15 6.33Q26.73 5.89 26.01 5.89L26.01 5.89Q25.27 5.89 24.80 6.40Q24.33 6.90 24.33 7.69L24.33 7.69L24.33 11.63Q24.33 11.94 24.14 12.14Q23.94 12.35 23.62 12.35L23.62 12.35Q23.31 12.35 23.11 12.14Q22.90 11.94 22.90 11.63L22.90 11.63L22.90 5.40Q22.90 5.08 23.11 4.89Q23.31 4.69 23.62 4.69L23.62 4.69Q23.93 4.69 24.12 4.88Q24.32 5.07 24.33 5.38L24.33 5.38Q24.70 5.01 25.20 4.81Q25.70 4.61 26.29 4.61L26.29 4.61Q27.01 4.61 27.57 4.89Q28.14 5.18 28.50 5.71L28.50 5.71Q28.92 5.19 29.55 4.90Q30.18 4.61 30.95 4.61L30.95 4.61ZM42.91 8.39Q42.91 8.65 42.73 8.83Q42.55 9.00 42.27 9.00L42.27 9.00L36.95 9.00Q37.10 9.98 37.84 10.58Q38.57 11.19 39.63 11.19L39.63 11.19Q40.05 11.19 40.51 11.03Q40.96 10.88 41.26 10.65L41.26 10.65Q41.45 10.50 41.72 10.50L41.72 10.50Q41.99 10.50 42.14 10.64L42.14 10.64Q42.39 10.85 42.39 11.12L42.39 11.12Q42.39 11.37 42.17 11.54L42.17 11.54Q41.69 11.91 40.99 12.15Q40.28 12.39 39.63 12.39L39.63 12.39Q38.49 12.39 37.58 11.89Q36.67 11.40 36.16 10.51Q35.64 9.63 35.64 8.51L35.64 8.51Q35.64 7.39 36.13 6.50Q36.61 5.61 37.47 5.12Q38.33 4.62 39.42 4.62L39.42 4.62Q40.50 4.62 41.29 5.10Q42.07 5.57 42.49 6.43Q42.91 7.28 42.91 8.39L42.91 8.39ZM39.42 5.82Q38.40 5.82 37.77 6.38Q37.13 6.94 36.96 7.88L36.96 7.88L41.62 7.88Q41.50 6.94 40.92 6.38Q40.35 5.82 39.42 5.82L39.42 5.82ZM56.92 2.13Q56.92 1.81 57.13 1.60Q57.34 1.40 57.65 1.40L57.65 1.40Q57.96 1.40 58.16 1.60Q58.37 1.81 58.37 2.13L58.37 2.13L58.37 11.61Q58.37 11.93 58.16 12.13Q57.96 12.33 57.65 12.33L57.65 12.33Q57.34 12.33 57.13 12.12Q56.92 11.91 56.92 11.61L56.92 11.61L56.92 7.43L50.43 7.43L50.43 11.61Q50.43 11.91 50.23 12.12Q50.02 12.33 49.70 12.33L49.70 12.33Q49.39 12.33 49.18 12.12Q48.97 11.91 48.97 11.61L48.97 11.61L48.97 2.13Q48.97 1.81 49.18 1.60Q49.39 1.40 49.70 1.40L49.70 1.40Q50.02 1.40 50.23 1.60Q50.43 1.81 50.43 2.13L50.43 2.13L50.43 6.15L56.92 6.15L56.92 2.13ZM64.50 4.62Q65.58 4.62 66.45 5.13Q67.33 5.64 67.84 6.53Q68.35 7.42 68.35 8.51L68.35 8.51L68.35 11.63Q68.35 11.94 68.15 12.14Q67.94 12.35 67.63 12.35L67.63 12.35Q67.33 12.35 67.12 12.14Q66.92 11.94 66.92 11.63L66.92 11.63L66.92 11.12Q66.43 11.72 65.73 12.05Q65.03 12.39 64.22 12.39L64.22 12.39Q63.21 12.39 62.39 11.89Q61.57 11.38 61.10 10.49Q60.63 9.60 60.63 8.51L60.63 8.51Q60.63 7.42 61.14 6.53Q61.64 5.64 62.53 5.13Q63.42 4.62 64.50 4.62L64.50 4.62ZM64.50 11.13Q65.20 11.13 65.77 10.79Q66.33 10.44 66.65 9.85Q66.98 9.25 66.98 8.51L66.98 8.51Q66.98 7.77 66.65 7.17Q66.33 6.57 65.77 6.22Q65.20 5.88 64.50 5.88L64.50 5.88Q63.80 5.88 63.23 6.22Q62.66 6.57 62.34 7.17Q62.01 7.77 62.01 8.51L62.01 8.51Q62.01 9.25 62.34 9.85Q62.66 10.44 63.23 10.79Q63.80 11.13 64.50 11.13L64.50 11.13ZM73.88 4.62Q75.53 4.62 76.62 5.88L76.62 5.88Q76.76 6.03 76.76 6.24L76.76 6.24Q76.76 6.55 76.45 6.76L76.45 6.76Q76.31 6.86 76.13 6.86L76.13 6.86Q75.81 6.86 75.59 6.61L75.59 6.61Q75.24 6.23 74.82 6.05Q74.41 5.88 73.88 5.88L73.88 5.88Q72.80 5.88 72.13 6.60Q71.46 7.32 71.46 8.51L71.46 8.51Q71.46 9.27 71.77 9.86Q72.09 10.46 72.65 10.79Q73.22 11.13 73.95 11.13L73.95 11.13Q74.90 11.13 75.49 10.64L75.49 10.64Q75.75 10.44 76.01 10.44L76.01 10.44Q76.20 10.44 76.37 10.57L76.37 10.57Q76.64 10.79 76.64 11.07L76.64 11.07Q76.64 11.28 76.47 11.45L76.47 11.45Q75.46 12.39 73.95 12.39L73.95 12.39Q72.84 12.39 71.96 11.89Q71.08 11.38 70.58 10.49Q70.08 9.60 70.08 8.51L70.08 8.51Q70.08 7.39 70.57 6.50Q71.05 5.61 71.92 5.12Q72.79 4.62 73.88 4.62L73.88 4.62ZM84.67 11.33Q84.83 11.49 84.83 11.75L84.83 11.75Q84.83 12.05 84.57 12.26L84.57 12.26Q84.36 12.43 84.13 12.43L84.13 12.43Q83.82 12.43 83.62 12.18L83.62 12.18L80.96 8.89L80.26 9.51L80.26 11.65Q80.26 11.96 80.07 12.14Q79.88 12.33 79.58 12.33L79.58 12.33Q79.27 12.33 79.08 12.14Q78.89 11.96 78.89 11.65L78.89 11.65L78.89 2.09Q78.89 1.78 79.08 1.59Q79.27 1.40 79.58 1.40L79.58 1.40Q79.88 1.40 80.07 1.59Q80.26 1.78 80.26 2.09L80.26 2.09L80.26 7.78L83.66 4.75Q83.85 4.56 84.10 4.56L84.10 4.56Q84.39 4.56 84.57 4.79L84.57 4.79Q84.76 4.97 84.76 5.22L84.76 5.22Q84.76 5.52 84.53 5.70L84.53 5.70L81.96 7.99L84.67 11.33ZM89.54 4.62Q90.45 4.62 91.17 4.91Q91.90 5.21 92.32 5.73L92.32 5.73Q92.50 5.95 92.50 6.17L92.50 6.17Q92.50 6.41 92.26 6.61L92.26 6.61Q92.11 6.72 91.87 6.72L91.87 6.72Q91.50 6.72 91.21 6.45L91.21 6.45Q90.86 6.13 90.47 6.00Q90.08 5.87 89.52 5.87L89.52 5.87Q88.87 5.87 88.46 6.08Q88.05 6.30 88.05 6.69L88.05 6.69Q88.05 6.97 88.19 7.16Q88.33 7.35 88.72 7.51Q89.11 7.67 89.85 7.83L89.85 7.83Q91.38 8.13 92.02 8.68Q92.65 9.23 92.65 10.09L92.65 10.09Q92.65 10.74 92.30 11.26Q91.95 11.79 91.27 12.09Q90.59 12.39 89.64 12.39L89.64 12.39Q88.69 12.39 87.85 12.10Q87.01 11.80 86.53 11.33L86.53 11.33Q86.35 11.14 86.35 10.89L86.35 10.89Q86.35 10.56 86.63 10.35L86.63 10.35Q86.90 10.15 87.12 10.15L87.12 10.15Q87.40 10.15 87.65 10.40L87.65 10.40Q87.92 10.70 88.45 10.91Q88.98 11.13 89.59 11.13L89.59 11.13Q90.38 11.13 90.83 10.86Q91.27 10.60 91.27 10.15L91.27 10.15Q91.27 9.72 90.83 9.43Q90.40 9.14 89.36 8.95L89.36 8.95Q86.67 8.43 86.67 6.73L86.67 6.73Q86.67 6.05 87.08 5.57Q87.49 5.10 88.14 4.86Q88.80 4.62 89.54 4.62L89.54 4.62Z"></path></g><!----><g data-v-423bf9ae="" id="dd725784-a599-409e-9730-025f965b755f" transform="matrix(2.167525483373794,0,0,2.167525483373794,-19.96834980578913,-63.13727798248189)" stroke="none" fill="#ffffff"><path d="M76.054 41.252a.75.75 0 00.178.71c.258.273 2.576 2.672 4.582 2.672.935 0 1.694-.511 2.137-1.44A.748.748 0 0083 43.06c.029-.11.261-1.105-.394-1.951-.91-1.177-2.913-1.313-6.042-.38a.749.749 0 00-.51.523zm5.36.768c.169.21.156.493.142.61-.237.442-.507.504-.742.504-.704 0-1.703-.633-2.522-1.305 1.595-.342 2.761-.26 3.123.19zM71.966 38.891a.752.752 0 00.731.01c.37-.198 3.611-2.001 3.836-4.107.057-.539-.054-1.334-.908-2.064a.756.756 0 00-.118-.082 2.474 2.474 0 00-1.153-.29c-.599 0-1.144.235-1.575.679-.873.898-1.261 2.608-1.187 5.226a.75.75 0 00.374.628zm1.889-4.809a.664.664 0 01.5-.224c.155 0 .293.046.364.074.318.298.34.53.323.702-.072.678-.985 1.558-1.94 2.244.089-1.818.49-2.525.753-2.796zM77.28 38.812c.022.002.545.057 1.262.057 2.156 0 3.603-.462 4.3-1.372.308-.402.617-1.097.341-2.122a.766.766 0 00-.05-.134c-.231-.472-.913-1.27-2.004-1.27-1.361 0-2.8 1.207-4.4 3.689a.75.75 0 00.55 1.152zm3.85-3.34c.34 0 .552.269.626.38.092.413-.014.614-.104.732-.359.469-1.432.757-2.893.783 1.283-1.687 2.065-1.895 2.37-1.895zM75.514 49.062c.131 0 .269-.01.414-.028a.723.723 0 00.14-.032c.467-.155 1.309-.685 1.506-1.688.269-1.374-.726-3.003-3.043-4.982a.752.752 0 00-1.215.39c-.096.39-.901 3.856.375 5.485.438.559 1.069.855 1.823.855zm-.97-4.684c1.536 1.531 1.614 2.336 1.56 2.638-.058.317-.34.483-.458.54-.447.036-.66-.13-.774-.274-.437-.557-.456-1.797-.328-2.904z"></path><circle cx="28.341" cy="63.188" r="1.868"></circle><circle cx="72.64" cy="63.188" r="1.868"></circle><path d="M55.408 50.928a.75.75 0 00-1.5 0v6.912H36.79a.75.75 0 000 1.5h17.117v1.125a.75.75 0 001.5 0V59.34h.68a.75.75 0 000-1.5h-.68v-6.912zM34.796 54.215a.75.75 0 00.75-.75v-18.46h18.362v5.858a.75.75 0 001.5 0v-6.607a.75.75 0 00-.75-.75H34.796a.75.75 0 00-.75.75v19.209c0 .414.336.75.75.75zM75.883 65.796a.75.75 0 000 1.5h10.573a.75.75 0 000-1.5H75.883z"></path><path d="M88.925 69.261h-12.49a.749.749 0 00-1.082-.638 6.08 6.08 0 01-8.787-5.435c0-3.348 2.726-6.073 6.074-6.073a6.08 6.08 0 016.045 6.664.75.75 0 00.674.818.75.75 0 00.811-.65c4.426-.115 6.312-4.081 6.394-4.26a.757.757 0 00.069-.313V29.989a.75.75 0 00-.75-.75H24.988a.75.75 0 00-.75.75v5.571L19.04 47.754l-7.136 1.479a.75.75 0 00-.598.734v8.242c-.856.603-1.326 1.34-1.4 2.197-.152 1.754 1.478 3.195 1.664 3.354a.75.75 0 00.486.178h8.752a7.565 7.565 0 003.03 5.323H10.098a.75.75 0 000 1.5h78.826a.75.75 0 000-1.5zm-77.526-8.726c.036-.42.342-.811.885-1.167h6.504a.75.75 0 000-1.5h-5.983v-7.29l6.847-1.42h11.626a.75.75 0 00.75-.75V35.714a.75.75 0 00-.75-.75h-2.937a.75.75 0 000 1.5h2.187V47.66H20.71l4.968-11.652a.75.75 0 00.06-.294V30.74h59.395v28.457c-.336.631-1.865 3.147-4.957 3.257-.372-3.832-3.608-6.838-7.536-6.838-3.922 0-7.157 2.999-7.535 6.823H35.877c-.378-3.824-3.613-6.823-7.536-6.823s-7.157 2.999-7.534 6.823h-8.455c-.39-.396-1.014-1.193-.953-1.903zm10.87 2.653c0-3.348 2.724-6.073 6.072-6.073s6.074 2.725 6.074 6.073-2.725 6.073-6.074 6.073-6.072-2.724-6.072-6.073zm10.577 6.073a7.565 7.565 0 003.03-5.323h29.229a7.565 7.565 0 003.03 5.323H32.846z"></path><path d="M43.443 42.33l-2.607-3.667a.751.751 0 00-1.046-.177l-.84.598c-2.885 2.136-2.247 5.078-1.472 6.39l5.505 7.738c.058.067 1.415 1.636 3.562 1.636.984 0 1.966-.33 2.93-.987l.828-.589a.75.75 0 00.176-1.046l-2.606-3.666a.751.751 0 00-1.046-.177l-.79.564a.58.58 0 01-.263.049c-.317 0-1.193-.185-2.444-1.88-1.627-2.375-.884-3.152-.891-3.152h-.001l.828-.589a.75.75 0 00.177-1.045zm2.332 8.166c.628 0 1.016-.248 1.093-.302l.216-.154 1.738 2.444-.205.146c-.698.476-1.395.718-2.072.718-1.412 0-2.374-1.057-2.38-1.057l-5.428-7.63c-.146-.255-1.36-2.546 1.094-4.363l.217-.154 1.738 2.443-.223.16c-.083.06-2.005 1.517.545 5.238 1.229 1.666 2.462 2.511 3.667 2.51zM50.505 49.8a.748.748 0 001.041-.201 6.324 6.324 0 001.086-3.553 6.36 6.36 0 00-7.853-6.174.75.75 0 00.353 1.458 4.858 4.858 0 016 4.717c0 .972-.287 1.91-.829 2.712a.75.75 0 00.202 1.041zM81.17 50.178H65.887a.75.75 0 000 1.5h15.281a.75.75 0 000-1.5z"></path><path d="M61.344 59.616a.75.75 0 101.218.874c4.078-5.683-.248-10.053-.251-10.053-.97-1.121-1.337-2.092-1.096-2.886.323-1.06 1.714-1.75 2.503-2.03l.5 1.114a.75.75 0 00.99.378.746.746 0 00.437-.73l6.292-3.4a.75.75 0 00.328-.966l-.703-1.567a.75.75 0 00-.915-.407l-6.849 2.215a.744.744 0 00-.84-.166.75.75 0 00-.377.991l.522 1.167c-.93.349-2.795 1.244-3.32 2.957-.406 1.322.063 2.772 1.432 4.353.142.143 3.445 3.534.129 8.156zm9.267-17.72l-5.534 2.99-.612-1.367 6.004-1.942.142.319z"></path></g><!----></svg>